<mxfile host="app.diagrams.net" modified="2020-12-06T08:32:35.358Z" agent="5.0 (Windows)" etag="S5Hldv0EE1cF9sv2r72W" version="13.10.9" type="github">
  <diagram id="H1d659UwrJq4mEXI7UD1" name="Page-1">
    <mxGraphModel dx="1038" dy="547" grid="1" gridSize="10" guides="1" tooltips="1" connect="1" arrows="1" fold="1" page="1" pageScale="1" pageWidth="1169" pageHeight="827" math="0" shadow="0">
      <root>
        <mxCell id="0" />
        <mxCell id="1" parent="0" />
        <mxCell id="GaWUunt8Xdnt5ZIhRWRH-1" value="&#xa;JOURNAL / ADJUSTING ENTRIES&#xa;" style="swimlane;" vertex="1" parent="1">
          <mxGeometry x="10" y="10" width="1150" height="810" as="geometry" />
        </mxCell>
        <mxCell id="GaWUunt8Xdnt5ZIhRWRH-2" value="Start" style="rounded=1;whiteSpace=wrap;html=1;" vertex="1" parent="GaWUunt8Xdnt5ZIhRWRH-1">
          <mxGeometry x="260" y="50" width="90" height="50" as="geometry" />
        </mxCell>
        <mxCell id="GaWUunt8Xdnt5ZIhRWRH-5" value="GL accountant receives Journals from other sections" style="rounded=0;whiteSpace=wrap;html=1;" vertex="1" parent="GaWUunt8Xdnt5ZIhRWRH-1">
          <mxGeometry x="230" y="170" width="150" height="70" as="geometry" />
        </mxCell>
        <mxCell id="GaWUunt8Xdnt5ZIhRWRH-4" value="" style="edgeStyle=orthogonalEdgeStyle;rounded=0;orthogonalLoop=1;jettySize=auto;html=1;entryX=0.5;entryY=0;entryDx=0;entryDy=0;" edge="1" parent="GaWUunt8Xdnt5ZIhRWRH-1" source="GaWUunt8Xdnt5ZIhRWRH-2" target="GaWUunt8Xdnt5ZIhRWRH-5">
          <mxGeometry relative="1" as="geometry">
            <mxPoint x="305" y="175" as="targetPoint" />
          </mxGeometry>
        </mxCell>
        <mxCell id="GaWUunt8Xdnt5ZIhRWRH-6" value="&lt;div&gt;accurate/&lt;/div&gt;&lt;div&gt; complete?&lt;/div&gt;" style="rhombus;whiteSpace=wrap;html=1;rounded=0;" vertex="1" parent="GaWUunt8Xdnt5ZIhRWRH-1">
          <mxGeometry x="250" y="290" width="110" height="80" as="geometry" />
        </mxCell>
        <mxCell id="GaWUunt8Xdnt5ZIhRWRH-7" value="" style="edgeStyle=orthogonalEdgeStyle;rounded=0;orthogonalLoop=1;jettySize=auto;html=1;" edge="1" parent="GaWUunt8Xdnt5ZIhRWRH-1" source="GaWUunt8Xdnt5ZIhRWRH-5" target="GaWUunt8Xdnt5ZIhRWRH-6">
          <mxGeometry relative="1" as="geometry" />
        </mxCell>
        <mxCell id="GaWUunt8Xdnt5ZIhRWRH-8" value="" style="whiteSpace=wrap;html=1;rounded=0;" vertex="1" parent="1">
          <mxGeometry x="255" y="470" width="120" height="60" as="geometry" />
        </mxCell>
        <mxCell id="GaWUunt8Xdnt5ZIhRWRH-9" value="" style="edgeStyle=orthogonalEdgeStyle;rounded=0;orthogonalLoop=1;jettySize=auto;html=1;" edge="1" parent="1" source="GaWUunt8Xdnt5ZIhRWRH-6" target="GaWUunt8Xdnt5ZIhRWRH-8">
          <mxGeometry relative="1" as="geometry" />
        </mxCell>
      </root>
    </mxGraphModel>
  </diagram>
</mxfile>
